<?xml version="1.0" standalone="no"?>
<!DOCTYPE svg PUBLIC "-//W3C//DTD SVG 20010904//EN"
 "http://www.w3.org/TR/2001/REC-SVG-20010904/DTD/svg10.dtd">
<svg version="1.0" xmlns="http://www.w3.org/2000/svg"
 width="80.000000pt" height="80.000000pt" viewBox="0 0 80.000000 80.000000"
 preserveAspectRatio="xMidYMid meet">

<g transform="translate(0.000000,80.000000) scale(0.100000,-0.100000)"
fill="#000000" stroke="none">
<path d="M180 663 c-19 -24 -22 -37 -17 -98 4 -70 31 -155 48 -155 5 0 9 10 9
23 0 12 9 28 20 34 21 14 50 99 50 148 0 72 -68 102 -110 48z m70 -2 c13 -25
13 -76 -1 -126 -23 -85 -44 -79 -55 16 -4 39 -2 65 9 92 18 41 31 47 47 18z"/>
<path d="M420 628 c-13 -60 -10 -203 4 -203 5 0 10 16 10 35 1 46 17 54 28 14
11 -43 34 -61 58 -47 12 8 21 8 28 1 17 -17 58 -1 71 28 6 15 9 29 5 33 -4 3
-9 0 -11 -6 -10 -27 -40 -56 -51 -49 -7 4 -12 20 -12 37 0 24 4 29 23 29 31 0
57 29 57 63 0 31 -13 41 -45 33 -31 -8 -65 -72 -65 -120 0 -44 -17 -56 -26
-19 -3 15 -7 33 -8 38 -2 6 8 23 21 39 34 40 30 101 -7 101 -18 0 -30 -10 -47
-40 -26 -47 -29 -38 -8 31 8 27 15 50 15 52 0 1 -6 2 -14 2 -9 0 -19 -19 -26
-52z m90 -32 c0 -28 -36 -76 -56 -76 -19 0 -9 44 18 83 22 31 38 28 38 -7z
m89 -72 c-13 -16 -39 -19 -39 -3 0 15 21 53 34 61 16 10 20 -40 5 -58z"/>
<path d="M316 587 c-46 -33 -23 -167 28 -167 30 0 46 36 46 103 0 72 -29 97
-74 64z m59 -28 c4 -12 4 -41 0 -65 -10 -72 -42 -71 -52 3 -8 64 35 116 52 62z"/>
<path d="M685 363 c-20 -130 -85 -212 -198 -251 -55 -19 -153 -12 -207 15 -53
26 -120 86 -120 106 0 8 -6 20 -14 26 -8 6 -16 24 -19 39 -3 15 -10 43 -15 62
-8 28 -10 30 -11 11 -1 -26 15 -86 30 -111 5 -8 15 -26 22 -40 16 -33 70 -80
123 -107 45 -23 150 -32 209 -18 32 8 125 64 125 75 0 4 14 21 30 38 17 18 30
40 30 50 0 10 5 23 10 28 11 11 24 114 15 114 -2 0 -7 -17 -10 -37z"/>
<path d="M181 364 c-36 -46 -19 -130 35 -180 33 -31 40 -30 19 2 -13 20 -14
28 -4 40 6 8 18 14 27 14 11 0 13 -8 9 -37 -5 -26 -3 -33 3 -23 13 20 13 80 0
80 -6 0 -8 15 -4 40 12 76 -43 117 -85 64z m64 -25 c9 -28 -3 -74 -25 -94 -18
-16 -19 -15 -29 23 -11 39 -8 65 11 89 12 16 36 6 43 -18z"/>
<path d="M367 333 c16 -53 11 -156 -9 -180 -10 -12 -14 -10 -27 14 -19 36 -20
155 -2 177 18 22 5 34 -15 14 -36 -36 -29 -170 12 -216 l24 -27 19 22 c38 45
36 200 -3 232 -12 10 -12 4 1 -36z"/>
<path d="M575 370 c-12 -19 -18 -177 -7 -184 12 -7 47 26 68 67 26 49 9 52
-19 4 -16 -26 -31 -47 -34 -47 -6 0 3 105 13 145 6 25 -9 35 -21 15z"/>
<path d="M418 354 c-11 -11 -10 -178 2 -208 12 -31 35 -34 50 -5 9 17 14 18
26 8 30 -25 45 10 50 117 3 67 1 92 -5 79 -5 -11 -10 -47 -11 -80 -1 -33 -5
-71 -10 -85 l-7 -25 -12 29 c-6 15 -10 57 -9 92 4 95 -16 79 -23 -19 -3 -45
-11 -92 -17 -102 -14 -25 -13 -30 -21 98 -3 60 -9 105 -13 101z"/>
</g>
</svg>
